<?xml version="1.0" encoding="utf-8"?>
<svg version="1.1" xmlns="http://www.w3.org/2000/svg" xmlns:xlink="http://www.w3.org/1999/xlink" height="604" width="744.0000991765378">
  <defs>
    <path id="path-1" opacity="1" fill-rule="evenodd" d="M144.73869971278782,85.85920112042282 L601.2522683360281,85.85920112042282 C628.8480195607282,85.85920112042282 651.2522683360281,108.26344989572283 651.2522683360281,135.85920112042282 L651.2522683360281,466.99999999999994 C651.2522683360281,494.59575122469994 628.8480195607282,517 601.2522683360281,517 L144.73869971278782,517 C117.14294848808782,517 94.73869971278782,494.59575122469994 94.73869971278782,466.99999999999994 L94.73869971278782,135.85920112042282 C94.73869971278782,108.26344989572283 117.14294848808781,85.85920112042282 144.73869971278782,85.85920112042282Z"/>
    <path id="path-2" opacity="1" fill-rule="evenodd" d="M476.6067510103447,58.07737997750314 L626.7122683360285,58.07737997750314 C640.2562630371112,58.07737997750314 651.2522683360285,69.07338527642038 651.2522683360285,82.61737997750313 L651.2522683360285,125.66770624773497 C651.2522683360285,139.21170094881774 640.2562630371112,150.207706247735 626.7122683360285,150.207706247735 L476.6067510103447,150.20770624773496 C463.0627563092619,150.207706247735 452.06675101034466,139.21170094881774 452.06675101034466,125.66770624773497 L452.06675101034466,82.61737997750313 C452.06675101034466,69.07338527642038 463.0627563092619,58.07737997750314 476.6067510103447,58.07737997750314Z"/>
    <path id="path-3" opacity="1" fill-rule="evenodd" d="M452.06675101034443,73.17405603700831 C452.06675101034443,80.13796691694303 430.6316207443156,134.07751691276252 316.49755026064736,134.07751691276252 C316.49755026064736,145.70454126177012 458.0653882116585,139.84181416938694 458.0653882116585,139.84181416938694 L460.1572206716039,74.2998472834995 L452.06675101034443,73.17405603700831Z"/>
    <path id="path-4" opacity="1" fill-rule="evenodd" d="M671.949104022996,185.1503073745753 C669.9187961622363,183.62464502176476 654.4823039723996,161.55790768494464 650.5816519005158,145.88295738268155 C646.6809998286319,130.2080070804185 646.342615185172,191.76356152486292 646.342615185172,191.76356152486292 L656.0081110920008,200.24083056588273 L671.949104022996,185.1503073745753Z"/>
    <path id="path-5" opacity="1" fill-rule="evenodd" d="M699.0752475323586,192.9016564251449 C698.4600027260678,196.9741906088569 674.4162356962227,194.07666251138207 675.4621518669171,188.47846597485952 L681.5776852414477,155.87358504786016 L705.1907809068894,160.3029273624714 C705.1907809068894,160.3029273624714 699.6966447867123,188.83527410575874 699.0752475323586,192.9016564251449Z"/>
    <ellipse id="ellipse-6" opacity="1" rx="7.709017422823932" ry="7.708286000288721" cx="709.9527757075801" cy="145.88295738268144"/>
    <path id="path-7" opacity="1" fill-rule="evenodd" d="M672.2032762999257,406.292023389966 L651.2418857495975,442.96943850067737 L645.9999999999998,329 L679.4077929815913,330.0950318500011 L672.2032762999257,406.292023389966Z"/>
    <path id="path-8" opacity="1" fill-rule="evenodd" d="M716.2713398681865,324.17628927443525 L728.3055282792349,547.5074198957293 L706.2859166620865,547.5074198957293 L647.677696414823,337.7780612988873 L647.677696414823,324.9944872297732 L716.2713398681865,324.17628927443525Z"/>
    <linearGradient id="linearGradient-9" x1="0.55" y1="0.24" x2="0.89" y2="0.97">
      <stop offset="0" stop-color="rgb(83,194,204)" stop-opacity="1"/>
      <stop offset="1" stop-color="rgb(20,25,76)" stop-opacity="1"/>
    </linearGradient>
    <path id="path-10" opacity="1" fill-rule="evenodd" d="M690.6123280320508,179.29373253636692 C743.7387170552629,190.50242933806368 727.2132415582917,312.92452942245745 716.9140435009833,322.9520682735912 C706.614845443675,332.97960712472496 630.7182461396394,334.84362201545724 623.3968329447787,326.4586309393252 C616.075419749918,318.0736398631931 623.9382483743146,165.2121150944987 690.6123280320508,179.29373253636692Z"/>
    <linearGradient id="linearGradient-11" x1="0.5" y1="0.25" x2="0.5" y2="1.55">
      <stop offset="0" stop-color="rgb(254,211,133)" stop-opacity="1"/>
      <stop offset="1" stop-color="rgb(240,170,42)" stop-opacity="1"/>
    </linearGradient>
    <ellipse id="ellipse-12" opacity="1" rx="33.32781115677372" ry="23.97381527783331" cx="689.4835810022843" cy="139.78030797143953"/>
    <path id="path-13" opacity="1" fill-rule="evenodd" d="M696.7557746126402,89.91944761043396 C703.3510423983604,94.29013974035935 730.2198523212514,102.31792418055251 734.9999999999992,118.83320994192397 C739.780147678747,135.3484957032954 724.9401391888215,150.20771800375354 715.213118801364,150.20771800375354 C710.9064051573284,150.20771800375354 706.5996915132929,142.82548081273478 706.5996915132929,140.3647350823952 C706.5996915132929,137.90398935205565 709.0606707384561,136.05843005430097 709.0606707384561,134.2128707565463 C709.1098903229592,125.3234268056946 680.3102809404871,120.38347975203787 678.3907171448599,112.38605612843426 C676.305037251534,114.29928593377329 671.5061277624658,120.19892382226243 669.7157653761595,124.0192315686146 C667.2547861509964,122.75809938181557 667.5377987618901,120.70952856130788 664.7938069258332,118.83320994192394 C662.4251144216137,117.22757335287737 655.042176746124,113.11812798321029 655.042176746124,104.9361484298312 C655.0114145058095,100.86976611044506 669.7157653761593,72.00000000000003 696.7557746126402,89.91944761043396Z"/>
    <path id="path-14" opacity="1" fill-rule="evenodd" d="M679.4366333155547,243.45152559064564 C674.323948975278,246.09067538643484 666.9040966114106,249.88022381115778 661.7914122711339,259.9385219839208 C655.3621040453949,258.7819714906612 623.3693741182723,253.0115227530149 600.4515050839393,253.34372342661072 C598.3104531580473,257.9576216709974 594.6805088009314,265.2168215754992 596.1447914399035,266.2072717319609 C597.6090740788757,267.19772188842256 644.6260821756201,286.8160172235548 677.603203792808,283.8446667541698 C681.9099174368437,284.15225997046224 699.2352111819932,267.84981950696255 699.7950839557178,266.53332054123086 C700.3549567294425,265.21682157549924 679.4366333155547,243.45152559064567 679.4366333155547,243.45152559064564Z"/>
    <ellipse id="ellipse-15" opacity="1" rx="10.010032998351651" ry="14.930574718835349" cx="589.2048300249429" cy="257.45316879627774"/>
    <ellipse id="ellipse-16" opacity="1" rx="15.854858658114424" ry="13.564860838496902" cx="603.349308121569" cy="63.5648608384969"/>
    <path id="path-17" opacity="1" fill-rule="evenodd" d="M727.8256373303278,213.07361954960365 C741.9762678750167,229.01925188220412 707.2149363195853,274.86294483843034 700.5149203790783,272.96817062606885 C692.6213295143671,270.73504387578566 668.6021722767733,248.25613162913368 668.4114463868233,240.47402325693477 C668.2207204968731,232.6919148847359 710.3711421758571,193.41841302851628 727.8256373303278,213.07361954960365Z"/>
    <linearGradient id="linearGradient-18" x1="0.5" y1="0" x2="0.5" y2="1">
      <stop offset="0" stop-color="rgb(254,216,146)" stop-opacity="1"/>
      <stop offset="1" stop-color="rgb(255,207,121)" stop-opacity="1"/>
    </linearGradient>
    <rect id="rect-19" opacity="1" x="707.1041922544534" y="546.2585914375817" width="18.032825272383743" height="14.057009984564935" rx="0" ry="0"/>
    <path id="path-20" opacity="1" fill-rule="evenodd" d="M707.104192254453,556.6490902839407 L707.104192254453,568.1100135229973 L735.3685386554532,603.99999 L743.8220022938891,599.8905446303329 L726.5090134448653,556.6490902839407 L707.104192254453,556.6490902839407Z"/>
    <rect id="rect-21" opacity="1" x="0" y="50" width="95" height="554"/>
    <rect id="rect-22" opacity="1" x="0.00009917653778757085" y="2.842170943040401e-14" width="744" height="50.000000000182126"/>
  </defs>
  <g opacity="1">
    <g opacity="1">
      <use xlink:href="#path-1" fill="rgb(26,41,88)" fill-opacity="1"/>
    </g>
    <g opacity="1">
      <use xlink:href="#path-2" fill="rgb(243,243,243)" fill-opacity="1"/>
    </g>
    <g opacity="1">
      <use xlink:href="#path-3" fill="rgb(243,243,243)" fill-opacity="1"/>
    </g>
    <g opacity="1">
      <g opacity="1">
        <use xlink:href="#path-4" fill="rgb(252,196,134)" fill-opacity="1"/>
      </g>
      <g opacity="1">
        <use xlink:href="#path-5" fill="rgb(100,59,39)" fill-opacity="1"/>
      </g>
      <g opacity="1">
        <use xlink:href="#ellipse-6" fill="rgb(100,59,39)" fill-opacity="1"/>
      </g>
      <g opacity="1">
        <use xlink:href="#path-7" fill="rgb(86,202,216)" fill-opacity="1"/>
      </g>
      <g opacity="1">
        <use xlink:href="#path-8" fill="url(#linearGradient-9)"/>
      </g>
      <g opacity="1">
        <use xlink:href="#path-10" fill="url(#linearGradient-11)"/>
      </g>
      <g transform="translate(689.4835810022843, 139.78030797143953) rotate(99.00003539885253) translate(-689.4835810022843, -139.78030797143953)" opacity="1">
        <use xlink:href="#ellipse-12" fill="rgb(100,59,39)" fill-opacity="1"/>
      </g>
      <g opacity="1">
        <use xlink:href="#path-13" fill="rgb(0,0,0)" fill-opacity="1"/>
      </g>
      <g opacity="1">
        <use xlink:href="#path-14" fill="rgb(100,59,39)" fill-opacity="1"/>
      </g>
      <g transform="translate(589.2048300249429, 257.45316879627774) rotate(287.0001026209159) translate(-589.2048300249429, -257.45316879627774)" opacity="1">
        <use xlink:href="#ellipse-15" fill="rgb(100,59,39)" fill-opacity="1"/>
      </g>
      <g opacity="1">
        <use xlink:href="#ellipse-16" fill="rgb(100,59,39)" fill-opacity="1"/>
      </g>
      <g opacity="1">
        <use xlink:href="#path-17" fill="url(#linearGradient-18)"/>
      </g>
      <g opacity="1">
        <use xlink:href="#rect-19" fill="rgb(100,59,39)" fill-opacity="1"/>
      </g>
      <g opacity="1">
        <use xlink:href="#path-20" fill="rgb(0,0,0)" fill-opacity="1"/>
      </g>
    </g>
    <g opacity="1"/>
    <g opacity="1"/>
  </g>
</svg>