<svg width="255" height="171" viewBox="0 0 255 171" fill="none" xmlns="http://www.w3.org/2000/svg">
<path d="M169.733 8.01059H95.0564C94.136 8.01059 93.2156 8.37876 92.5713 9.05373L84.2568 17.3682C83.5818 18.0432 83.2136 18.933 83.2136 19.8534V94.5305C83.2136 97.5679 85.6988 100.053 88.7362 100.053H169.733C172.771 100.053 175.256 97.5679 175.256 94.5305V13.5331C175.256 10.4957 172.771 8.01059 169.733 8.01059Z" fill="#C50000" stroke="#DFCCE2" stroke-width="6" stroke-miterlimit="10" stroke-linecap="round" stroke-linejoin="round"/>
<path d="M166.083 3.8687H91.4055C90.4851 3.8687 89.5647 4.23687 88.9204 4.91184L80.6059 13.2263C79.9309 13.9013 79.5627 14.7911 79.5627 15.7115V90.3886C79.5627 93.426 82.0479 95.9111 85.0853 95.9111H166.083C169.12 95.9111 171.605 93.426 171.605 90.3886V9.39124C171.605 6.35384 169.12 3.8687 166.083 3.8687Z" fill="#747178"/>
<path opacity="0.43" d="M125.584 90.2964C147.052 90.2964 164.456 72.8925 164.456 51.4239C164.456 29.955 147.052 12.5513 125.584 12.5513C104.115 12.5513 86.7109 29.955 86.7109 51.4239C86.7109 72.8925 104.115 90.2964 125.584 90.2964Z" fill="#514E55" stroke="#464349" stroke-width="4" stroke-miterlimit="10"/>
<path d="M166.083 3.8687H91.4055C90.4851 3.8687 89.5647 4.23687 88.9204 4.91184L80.6059 13.2263C79.9309 13.9013 79.5627 14.7911 79.5627 15.7115V90.3886C79.5627 93.426 82.0479 95.9111 85.0853 95.9111H166.083C169.12 95.9111 171.605 93.426 171.605 90.3886V9.39124C171.605 6.35384 169.12 3.8687 166.083 3.8687Z" stroke="#413E51" stroke-width="6" stroke-miterlimit="10" stroke-linecap="round" stroke-linejoin="round"/>
<path d="M166.083 3.8687H91.4055C90.4851 3.8687 89.5647 4.23687 88.9204 4.91184L80.6059 13.2263C79.9309 13.9013 79.5627 14.7911 79.5627 15.7115V90.3886C79.5627 93.426 82.0479 95.9111 85.0853 95.9111H166.083C169.12 95.9111 171.605 93.426 171.605 90.3886V9.39124C171.605 6.35384 169.12 3.8687 166.083 3.8687Z" stroke="#413E51" stroke-width="6" stroke-miterlimit="10" stroke-linecap="round" stroke-linejoin="round"/>
<path d="M125.584 64.3098C132.7 64.3098 138.47 58.5406 138.47 51.4239C138.47 44.3072 132.7 38.5379 125.584 38.5379C118.467 38.5379 112.698 44.3072 112.698 51.4239C112.698 58.5406 118.467 64.3098 125.584 64.3098Z" fill="#C9C9C9"/>
<path d="M125.584 64.3098C132.7 64.3098 138.47 58.5406 138.47 51.4239C138.47 44.3072 132.7 38.5379 125.584 38.5379C118.467 38.5379 112.698 44.3072 112.698 51.4239C112.698 58.5406 118.467 64.3098 125.584 64.3098Z" stroke="#413E51" stroke-miterlimit="10" stroke-linecap="round" stroke-linejoin="round"/>
<path d="M157.493 95.9113H93.6758V88.241C93.6758 85.2035 96.161 82.7183 99.1984 82.7183H151.97C155.008 82.7183 157.493 85.2035 157.493 88.241V95.9113Z" fill="#413E51"/>
<path d="M157.493 95.9113H93.6758V88.241C93.6758 85.2035 96.161 82.7183 99.1984 82.7183H151.97C155.008 82.7183 157.493 85.2035 157.493 88.241V95.9113Z" stroke="#413E51" stroke-width="2" stroke-miterlimit="10" stroke-linecap="round" stroke-linejoin="round"/>
<path d="M165.929 82.7183H161.634V87.0136H165.929V82.7183Z" fill="#413E51"/>
<path d="M165.929 82.7183H161.634V87.0136H165.929V82.7183Z" stroke="#413E51" stroke-miterlimit="10" stroke-linecap="round" stroke-linejoin="round"/>
<path d="M138.47 78.6378H159.026" stroke="#413E51" stroke-width="2" stroke-miterlimit="10" stroke-linecap="round" stroke-linejoin="round"/>
<path d="M126.658 49.5831H123.896V52.3444H126.658V49.5831Z" fill="#413E51"/>
<path d="M126.658 49.5831H123.896V52.3444H126.658V49.5831Z" stroke="#413E51" stroke-miterlimit="10" stroke-linecap="round" stroke-linejoin="round"/>
<path d="M131.626 54.3328L125.836 56.3632L126.851 59.2586L132.642 57.2281L131.626 54.3328Z" fill="#413E51"/>
<path d="M131.626 54.3328L125.836 56.3632L126.851 59.2586L132.642 57.2281L131.626 54.3328Z" stroke="#413E51" stroke-miterlimit="10" stroke-linecap="round" stroke-linejoin="round"/>
<path d="M171.604 22.8908C169.579 22.8908 167.923 21.234 167.923 19.2091C167.923 17.1841 169.579 15.5274 171.604 15.5274V22.8908Z" fill="#413E51"/>
<path d="M171.604 22.8908C169.579 22.8908 167.923 21.234 167.923 19.2091C167.923 17.1841 169.579 15.5274 171.604 15.5274V22.8908Z" stroke="#413E51" stroke-width="4" stroke-miterlimit="10" stroke-linecap="round" stroke-linejoin="round"/>
<path d="M79.5627 22.8907C81.5877 22.8907 83.2444 21.2339 83.2444 19.209C83.2444 17.1841 81.5877 15.5273 79.5627 15.5273V22.8907Z" fill="#413E51"/>
<path d="M79.5627 22.8907C81.5877 22.8907 83.2444 21.2339 83.2444 19.209C83.2444 17.1841 81.5877 15.5273 79.5627 15.5273V22.8907Z" stroke="#413E51" stroke-width="5" stroke-miterlimit="10" stroke-linecap="round" stroke-linejoin="round"/>
<path d="M86.2203 30.2541C87.6604 30.2541 88.8282 29.0864 88.8282 27.6463C88.8282 26.2058 87.6604 25.0384 86.2203 25.0384C84.7798 25.0384 83.6124 26.2058 83.6124 27.6463C83.6124 29.0864 84.7798 30.2541 86.2203 30.2541Z" fill="#413E51"/>
<path d="M163.076 30.2541C164.516 30.2541 165.684 29.0864 165.684 27.6463C165.684 26.2058 164.516 25.0384 163.076 25.0384C161.635 25.0384 160.468 26.2058 160.468 27.6463C160.468 29.0864 161.635 30.2541 163.076 30.2541Z" fill="#413E51"/>
<path d="M153.503 32.0948H111.164C108.126 32.0948 105.641 29.6097 105.641 26.5723V3.86871H159.026V26.5723C159.026 29.6404 156.54 32.0948 153.503 32.0948Z" fill="#514E55"/>
<path opacity="0.48" d="M140.003 32.0948H113.005C109.967 32.0948 107.482 29.6097 107.482 26.5723V3.86871H145.526V26.5723C145.526 29.6404 143.041 32.0948 140.003 32.0948Z" stroke="#413E51" stroke-width="6" stroke-miterlimit="10" stroke-linecap="round" stroke-linejoin="round"/>
<path d="M153.503 32.0948H111.164C108.126 32.0948 105.641 29.6097 105.641 26.5723V3.86871H159.026V26.5723C159.026 29.6404 156.54 32.0948 153.503 32.0948Z" stroke="#413E51" stroke-width="3" stroke-miterlimit="10" stroke-linecap="round" stroke-linejoin="round"/>
<path d="M143.686 7.85719H153.964" stroke="#413E51" stroke-width="2" stroke-miterlimit="10" stroke-linecap="round" stroke-linejoin="round"/>
<path d="M138.163 32.0948H111.164C108.126 32.0948 105.641 29.6097 105.641 26.5723V3.86871H143.685V26.5723C143.685 29.6404 141.2 32.0948 138.163 32.0948Z" fill="#BFC1C0"/>
<path opacity="0.52" d="M127.885 32.095L143.685 10.281V5.28003L123.773 32.095H127.885Z" fill="#DDDDDD"/>
<path opacity="0.52" d="M112.176 32.0017C112.544 32.063 110.765 32.1244 111.164 32.1244H120.306L141.383 3.89938H133.161L112.176 32.0017Z" fill="#DDDDDD"/>
<path d="M138.163 32.0948H111.164C108.126 32.0948 105.641 29.6097 105.641 26.5723V3.86871H143.685V26.5723C143.685 29.6404 141.2 32.0948 138.163 32.0948Z" stroke="#413E51" stroke-width="2" stroke-miterlimit="10" stroke-linecap="round" stroke-linejoin="round"/>
<path d="M119.939 7.24356H112.575V25.0384H119.939V7.24356Z" fill="#514E55"/>
<path opacity="0.48" d="M116.687 7.24356H112.575V25.0384H116.687V7.24356Z" fill="#413E51"/>
<path d="M119.939 7.24356H112.575V25.0384H119.939V7.24356Z" stroke="#413E51" stroke-width="2" stroke-miterlimit="10" stroke-linecap="round" stroke-linejoin="round"/>
<path d="M139.728 7.24359H136.046V9.08444H139.728V7.24359Z" stroke="#413E51" stroke-miterlimit="10" stroke-linecap="round" stroke-linejoin="round"/>
<path d="M86.7107 95.9111V88.5477" stroke="#413E51" stroke-width="2" stroke-miterlimit="10" stroke-linecap="round" stroke-linejoin="round"/>
<g clip-path="url(#clip0_2008_210)">
<path d="M180.994 132.571L185.773 125.466C186.133 124.956 186.387 124.382 186.522 123.777C186.656 123.172 186.667 122.549 186.555 121.944C186.443 121.339 186.209 120.764 185.868 120.253C185.526 119.743 185.084 119.306 184.567 118.97C184.051 118.634 183.469 118.405 182.858 118.296C182.246 118.187 181.617 118.201 181.007 118.336C180.397 118.471 179.818 118.726 179.304 119.084C178.791 119.442 178.354 119.897 178.018 120.423L168.211 135.006C167.511 135.701 167.047 136.594 166.886 137.557C166.683 138.468 166.762 139.414 167.111 140.272C167.46 141.13 168.063 141.859 168.843 142.365L184.353 152.452C185.382 153.087 186.627 153.294 187.823 153.029C189.019 152.764 190.071 152.047 190.753 151.032C191.435 150.018 191.694 148.786 191.474 147.6C191.254 146.414 190.572 145.368 189.575 144.686L184.291 141.248C191.917 139.12 198.857 135.003 204.379 129.332C209.901 123.66 213.801 116.644 215.669 109.022C217.536 101.401 217.302 93.4554 214.99 86.0236C212.678 78.5919 208.374 71.9487 202.533 66.7941L200.161 64.7001C199.706 64.2989 199.174 63.9918 198.596 63.7962C198.018 63.6006 197.405 63.5203 196.791 63.56C196.178 63.5997 195.576 63.7585 195.021 64.0274C194.466 64.2964 193.968 64.6701 193.555 65.1273C192.721 66.0507 192.287 67.2581 192.347 68.4839C192.377 69.0908 192.528 69.684 192.79 70.2296C193.052 70.7751 193.421 71.2624 193.876 71.6635L196.244 73.756C200.898 77.8627 204.31 83.1692 206.111 89.1027C207.913 95.0362 208.036 101.371 206.467 107.425C204.898 113.478 201.696 119.02 197.208 123.452C192.72 127.884 187.115 131.037 180.998 132.573L180.994 132.571Z" fill="#B9A6B7"/>
</g>
<g clip-path="url(#clip1_2008_210)">
<path d="M73.8373 133.309L69.0585 126.204C68.6986 125.694 68.444 125.12 68.3096 124.515C68.1752 123.91 68.1639 123.287 68.2762 122.682C68.3885 122.076 68.6222 121.502 68.9635 120.991C69.3048 120.48 69.747 120.044 70.2639 119.708C70.7808 119.372 71.362 119.143 71.9735 119.034C72.585 118.925 73.2143 118.938 73.8245 119.074C74.4347 119.209 75.0135 119.463 75.5269 119.822C76.0402 120.18 76.4777 120.635 76.8137 121.16L86.6207 135.744C87.3204 136.439 87.7841 137.332 87.9454 138.294C88.148 139.206 88.0696 140.152 87.7206 141.01C87.3716 141.868 86.7681 142.597 85.9888 143.103L70.4784 153.189C69.4497 153.825 68.2042 154.032 67.0082 153.766C65.8122 153.501 64.7607 152.785 64.0784 151.77C63.3962 150.756 63.1375 149.524 63.3576 148.337C63.5777 147.151 64.2591 146.105 65.2562 145.423L70.5406 141.986C62.9144 139.858 55.9746 135.741 50.4524 130.07C44.9302 124.398 41.0299 117.382 39.1625 109.76C37.2951 102.138 37.5296 94.1931 39.8415 86.7613C42.1533 79.3295 46.4568 72.6864 52.2987 67.5318L54.6707 65.4377C55.1255 65.0366 55.6572 64.7295 56.2353 64.5339C56.8134 64.3383 57.4267 64.258 58.0401 64.2977C58.6535 64.3374 59.255 64.4962 59.8103 64.7651C60.3656 65.034 60.8638 65.4078 61.2764 65.865C62.1098 66.7884 62.5442 67.9958 62.4839 69.2216C62.4541 69.8285 62.3038 70.4217 62.0415 70.9673C61.7792 71.5128 61.4101 72.0001 60.9553 72.4012L58.5877 74.4937C53.9336 78.6004 50.5216 83.9069 48.72 89.8404C46.9183 95.7739 46.7954 102.109 48.3644 108.163C49.9334 114.216 53.1348 119.758 57.6232 124.189C62.1115 128.621 67.7164 131.775 73.8329 133.31L73.8373 133.309Z" fill="#B9A6B7"/>
</g>
<defs>
<clipPath id="clip0_2008_210">
<rect width="93.4245" height="116.398" fill="white" transform="matrix(-0.866025 0.5 0.5 0.866025 196.012 22.153)"/>
</clipPath>
<clipPath id="clip1_2008_210">
<rect width="93.4245" height="116.398" fill="white" transform="translate(58.8196 22.8907) rotate(30)"/>
</clipPath>
</defs>
</svg>
