<svg width="211" height="162" viewBox="0 0 211 162" fill="none" xmlns="http://www.w3.org/2000/svg">
<path opacity="0.5" d="M26.4473 77.7279H18.4908C14.2785 77.7279 10.8853 74.3347 10.8853 70.1224C10.8853 65.9101 14.2785 62.5169 18.4908 62.5169H26.4473C30.6596 62.5169 34.0528 65.9101 34.0528 70.1224C34.0528 74.3054 30.6596 77.7279 26.4473 77.7279Z" fill="#825D7E"/>
<path opacity="0.5" fill-rule="evenodd" clip-rule="evenodd" d="M139.302 31.3343H185.198C189.381 31.3343 192.804 34.7568 192.833 38.9398C192.833 43.1521 189.44 46.5453 185.227 46.5453H157.35C153.15 46.5453 149.745 49.9506 149.745 54.1509C149.745 58.3514 153.15 61.7564 157.35 61.7564H164.078C168.29 61.7564 171.684 65.1496 171.684 69.3619C171.684 73.5742 168.29 76.9674 164.078 76.9674H136.991C132.79 76.9674 129.385 80.3727 129.385 84.573C129.385 88.7735 132.79 92.1785 136.991 92.1785H142.139C146.351 92.1785 149.745 95.5717 149.745 99.784C149.745 103.996 146.351 107.39 142.139 107.39H128.215C124.015 107.39 120.61 110.795 120.61 114.995C120.61 119.195 124.015 122.601 128.215 122.601H157.028C161.241 122.601 164.634 125.994 164.634 130.206C164.634 134.418 161.241 137.812 157.028 137.812H43.3843C39.1721 137.812 35.7788 134.418 35.7788 130.206C35.7788 125.994 39.1721 122.601 43.3843 122.601H74.5962V107.39H52.3647C48.1524 107.39 44.7592 103.996 44.7592 99.784C44.7592 95.5717 48.1524 92.1785 52.3647 92.1785H74.5962V76.9674H45.7537C41.5415 76.9674 38.1482 73.5742 38.1482 69.3619C38.1482 65.1496 41.5415 61.7564 45.7537 61.7564H49.7613C53.9616 61.7564 57.3668 58.3514 57.3668 54.1509C57.3668 49.9506 53.9616 46.5453 49.7613 46.5453H24.6045C20.3923 46.5453 16.999 43.1521 16.999 38.9398C16.999 34.7275 20.3923 31.3343 24.6045 31.3343H76.3514C80.5516 31.3343 83.9569 27.9294 83.9569 23.7288C83.9569 19.5285 80.5516 16.1232 76.3514 16.1232H60.5553C56.343 16.1232 52.9497 12.73 52.9497 8.51772C52.9497 4.30543 56.343 0.912201 60.5553 0.912201H149.247C153.46 0.912201 156.853 4.30543 156.853 8.51772C156.853 12.73 153.46 16.1232 149.247 16.1232H139.302C135.101 16.1232 131.696 19.5285 131.696 23.7288C131.696 27.9294 135.101 31.3343 139.302 31.3343ZM88.5494 61.7564H121.253C125.436 61.7564 128.859 58.3631 128.829 54.1509C128.829 49.9386 125.436 46.5453 121.224 46.5453H88.5494C84.3372 46.5453 80.9439 49.9386 80.9439 54.1509C80.9439 58.3631 84.3372 61.7564 88.5494 61.7564Z" fill="#825D7E"/>
<path opacity="0.69" d="M206.289 160.745H3.68944C1.75881 160.745 0.179199 159.165 0.179199 157.235C0.179199 155.304 1.75881 153.725 3.68944 153.725H206.318C208.249 153.725 209.828 155.304 209.828 157.235C209.799 159.165 208.249 160.745 206.289 160.745Z" fill="#3D233C"/>
<path d="M47.655 114.966H42.0386V110.11C42.0386 108.355 43.4719 106.921 45.227 106.921H47.6842V114.966H47.655Z" fill="#AB8FB8"/>
<path d="M129.122 114.966H123.506V110.11C123.506 108.355 124.939 106.921 126.694 106.921H129.151V114.966H129.122Z" fill="#AB8FB8"/>
<path d="M94.1659 18.2879H83.0209V37.1554H94.1659V18.2879Z" fill="#AB8FB8"/>
<path d="M92.3229 18.2878H81.1779V37.1554H92.3229V18.2878Z" fill="#DFCCE2"/>
<path opacity="0.82" d="M92.3228 34.9614H81.1777V36.8628H92.3228V34.9614Z" fill="#A380AF"/>
<path opacity="0.82" d="M94.1657 34.9614H92.3229V36.8628H94.1657V34.9614Z" fill="#A380AF"/>
<path d="M102.356 36.8628H77.1118V48.7977H102.356V36.8628Z" fill="#AB8FB8"/>
<path d="M67.6342 149.893L85.3902 101.1L74.8302 97.239L55.6409 149.893H67.6342Z" fill="#AC91BA"/>
<path d="M63.0414 149.893L80.7974 101.1L70.2082 97.239L51.0481 149.893H63.0414Z" fill="#DFCCE2"/>
<path opacity="0.82" d="M74.2741 98.7309L70.2081 97.239L62.4563 118.564H79.0129L85.3899 101.1L74.8299 97.239L74.2741 98.7309Z" fill="#A380AF"/>
<path d="M58.5951 149.893H42.1262V157.498H58.5951V149.893Z" fill="#DFCCE2"/>
<path d="M72.9873 149.893H56.5184V157.498H72.9873V149.893Z" fill="#B39FC1"/>
<path d="M75.0056 122.659L71.3491 132.663H102.239V122.659H75.0056Z" fill="#D1B9D6"/>
<path opacity="0.87" d="M75.0056 122.659L71.3491 132.663H73.3383L76.9948 122.659H75.0056Z" fill="#A380AF"/>
<path d="M120.639 149.893L101.45 97.239L90.8898 101.1L108.646 149.893H120.639Z" fill="#AC91BA"/>
<path d="M117.246 149.893L98.0855 97.239L87.5255 101.1L105.281 149.893H117.246Z" fill="#DFCCE2"/>
<path opacity="0.82" d="M101.449 97.239L98.4658 98.3213L98.0855 97.239L87.5255 101.1L93.8732 118.564H109.231L101.449 97.239Z" fill="#A380AF"/>
<path d="M129.122 114.966H42.0386V110.11C42.0386 108.355 43.4719 106.921 45.227 106.921H129.151V114.966H129.122Z" fill="#DFCCE2"/>
<path d="M120.506 48.7976H50.1838V106.921H120.506V48.7976Z" fill="#8D838C"/>
<path d="M114.525 149.893H98.0563V157.498H114.525V149.893Z" fill="#DFCCE2"/>
<path d="M128.946 149.893H112.477V157.498H128.946V149.893Z" fill="#B39FC1"/>
<path d="M98.2027 36.8628H72.9583V48.7976H98.2027V36.8628Z" fill="#DFCCE2"/>
<path opacity="0.82" d="M87.3793 45.8432C89.0431 45.8432 90.3922 44.4944 90.3922 42.8303C90.3922 41.1664 89.0431 39.8173 87.3793 39.8173C85.7151 39.8173 84.3663 41.1664 84.3663 42.8303C84.3663 44.4944 85.7151 45.8432 87.3793 45.8432Z" fill="#A380AF"/>
<path d="M86.5896 45.8432C88.2535 45.8432 89.6026 44.4944 89.6026 42.8303C89.6026 41.1664 88.2535 39.8173 86.5896 39.8173C84.9255 39.8173 83.5767 41.1664 83.5767 42.8303C83.5767 44.4944 84.9255 45.8432 86.5896 45.8432Z" fill="#736177"/>
</svg>
