<svg width="211" height="162" viewBox="0 0 211 162" fill="none" xmlns="http://www.w3.org/2000/svg">
<path opacity="0.5" d="M26.5152 77.9386H18.5586C14.3464 77.9386 10.9531 74.5454 10.9531 70.3331C10.9531 66.1208 14.3464 62.7276 18.5586 62.7276H26.5152C30.7275 62.7276 34.1207 66.1208 34.1207 70.3331C34.1207 74.5161 30.7275 77.9386 26.5152 77.9386Z" fill="#825D7E"/>
<path opacity="0.5" fill-rule="evenodd" clip-rule="evenodd" d="M139.37 31.545H185.266C189.449 31.545 192.871 34.9674 192.901 39.1505C192.901 43.3628 189.507 46.756 185.295 46.756H157.418C153.218 46.756 149.813 50.1612 149.813 54.3615C149.813 58.5621 153.218 61.967 157.418 61.967H164.146C168.358 61.967 171.752 65.3603 171.752 69.5726C171.752 73.7849 168.358 77.1781 164.146 77.1781H137.059C132.858 77.1781 129.453 80.5833 129.453 84.7836C129.453 88.9842 132.858 92.3891 137.059 92.3891H142.207C146.419 92.3891 149.813 95.7824 149.813 99.9947C149.813 104.207 146.419 107.6 142.207 107.6H128.283C124.083 107.6 120.678 111.005 120.678 115.206C120.678 119.406 124.083 122.811 128.283 122.811H157.096C161.309 122.811 164.702 126.204 164.702 130.417C164.702 134.629 161.309 138.022 157.096 138.022H43.4522C39.2399 138.022 35.8467 134.629 35.8467 130.417C35.8467 126.204 39.2399 122.811 43.4522 122.811H74.6641V107.6H52.4326C48.2203 107.6 44.8271 104.207 44.8271 99.9947C44.8271 95.7824 48.2203 92.3891 52.4326 92.3891H74.6641V77.1781H45.8216C41.6093 77.1781 38.2161 73.7849 38.2161 69.5726C38.2161 65.3603 41.6093 61.967 45.8216 61.967H49.8291C54.0294 61.967 57.4347 58.5621 57.4347 54.3615C57.4347 50.1612 54.0294 46.756 49.8291 46.756H24.6724C20.4601 46.756 17.0669 43.3628 17.0669 39.1505C17.0669 34.9382 20.4601 31.545 24.6724 31.545H76.4192C80.6195 31.545 84.0247 28.14 84.0247 23.9394C84.0247 19.7391 80.6195 16.3339 76.4192 16.3339H60.6231C56.4108 16.3339 53.0176 12.9407 53.0176 8.72839C53.0176 4.5161 56.4108 1.12286 60.6231 1.12286H149.315C153.528 1.12286 156.921 4.5161 156.921 8.72839C156.921 12.9407 153.528 16.3339 149.315 16.3339H139.37C135.169 16.3339 131.764 19.7391 131.764 23.9394C131.764 28.14 135.169 31.545 139.37 31.545ZM88.6173 61.967H121.321C125.504 61.967 128.927 58.5738 128.897 54.3615C128.897 50.1492 125.504 46.756 121.292 46.756H88.6173C84.405 46.756 81.0118 50.1492 81.0118 54.3615C81.0118 58.5738 84.405 61.967 88.6173 61.967Z" fill="#825D7E"/>
<path opacity="0.69" d="M206.357 160.956H3.75731C1.82668 160.956 0.24707 159.376 0.24707 157.446C0.24707 155.515 1.82668 153.935 3.75731 153.935H206.386C208.317 153.935 209.896 155.515 209.896 157.446C209.867 159.376 208.317 160.956 206.357 160.956Z" fill="#3D233C"/>
<path d="M47.7228 115.176H42.1064V110.321C42.1064 108.565 43.5398 107.132 45.2949 107.132H47.7521V115.176H47.7228Z" fill="#AB8FB8"/>
<path d="M129.19 115.176H123.573V110.321C123.573 108.565 125.007 107.132 126.762 107.132H129.219V115.176H129.19Z" fill="#AB8FB8"/>
<path d="M94.2339 18.4985H83.0889V37.3661H94.2339V18.4985Z" fill="#AB8FB8"/>
<path d="M92.3906 18.4985H81.2456V37.3661H92.3906V18.4985Z" fill="#DFCCE2"/>
<path opacity="0.82" d="M92.3906 35.1721H81.2456V37.0735H92.3906V35.1721Z" fill="#A380AF"/>
<path opacity="0.82" d="M94.2335 35.1721H92.3906V37.0735H94.2335V35.1721Z" fill="#A380AF"/>
<path d="M102.424 37.0735H77.1797V49.0084H102.424V37.0735Z" fill="#AB8FB8"/>
<path d="M67.7021 150.103L85.458 101.311L74.8981 97.4497L55.7087 150.103H67.7021Z" fill="#AC91BA"/>
<path d="M63.1093 150.103L80.8653 101.311L70.276 97.4497L51.116 150.103H63.1093Z" fill="#DFCCE2"/>
<path opacity="0.82" d="M74.342 98.9416L70.276 97.4497L62.5242 118.774H79.0808L85.4578 101.311L74.8978 97.4497L74.342 98.9416Z" fill="#A380AF"/>
<path d="M58.663 150.103H42.1941V157.709H58.663V150.103Z" fill="#DFCCE2"/>
<path d="M73.0553 150.103H56.5864V157.709H73.0553V150.103Z" fill="#B39FC1"/>
<path d="M75.0735 122.87L71.417 132.874H102.307V122.87H75.0735Z" fill="#D1B9D6"/>
<path opacity="0.87" d="M75.0735 122.87L71.417 132.874H73.4061L77.0626 122.87H75.0735Z" fill="#A380AF"/>
<path d="M120.707 150.103L101.517 97.4497L90.9575 101.311L108.713 150.103H120.707Z" fill="#AC91BA"/>
<path d="M117.314 150.103L98.1535 97.4497L87.5935 101.311L105.349 150.103H117.314Z" fill="#DFCCE2"/>
<path opacity="0.82" d="M101.517 97.4497L98.5338 98.532L98.1535 97.4497L87.5935 101.311L93.9412 118.774H109.298L101.517 97.4497Z" fill="#A380AF"/>
<path d="M129.19 115.176H42.1064V110.321C42.1064 108.565 43.5398 107.132 45.2949 107.132H129.219V115.176H129.19Z" fill="#DFCCE2"/>
<path d="M124.041 49.0083H53.7195V107.132H124.041V49.0083Z" fill="#AB8FB8"/>
<path d="M119.595 49.0083H49.2732V107.132H119.595V49.0083Z" fill="#FFFDFF"/>
<path d="M114.593 150.103H98.124V157.709H114.593V150.103Z" fill="#DFCCE2"/>
<path d="M129.014 150.103H112.545V157.709H129.014V150.103Z" fill="#B39FC1"/>
<path d="M98.2706 37.0735H73.0261V49.0083H98.2706V37.0735Z" fill="#DFCCE2"/>
<path opacity="0.82" d="M87.4473 46.0539C89.1111 46.0539 90.4602 44.7051 90.4602 43.0409C90.4602 41.3771 89.1111 40.028 87.4473 40.028C85.7831 40.028 84.4343 41.3771 84.4343 43.0409C84.4343 44.7051 85.7831 46.0539 87.4473 46.0539Z" fill="#A380AF"/>
<path d="M86.6575 46.0539C88.3213 46.0539 89.6704 44.7051 89.6704 43.041C89.6704 41.3771 88.3213 40.028 86.6575 40.028C84.9933 40.028 83.6445 41.3771 83.6445 43.041C83.6445 44.7051 84.9933 46.0539 86.6575 46.0539Z" fill="#736177"/>
<path d="M186.962 96.1919H178.743V94.9633C178.743 94.232 179.328 93.6469 180.059 93.6469H185.617C186.348 93.6469 186.933 94.232 186.933 94.9633V96.1919H186.962Z" fill="#96628A"/>
<path d="M186.114 93.6177H185.207C185.675 93.6177 186.056 93.9395 186.056 94.349V96.1626H186.962V94.349C186.962 93.9395 186.582 93.6177 186.114 93.6177Z" fill="#84517A"/>
<path d="M186.846 108.887H178.83C177.807 108.887 177.017 108.068 177.017 107.074V98.0347C177.017 97.0109 177.836 96.2211 178.83 96.2211H186.846C187.869 96.2211 188.659 97.0402 188.659 98.0347V107.074C188.688 108.068 187.869 108.887 186.846 108.887Z" fill="#CC83B4"/>
<path d="M186.846 96.1918H185.5C186.524 96.1918 187.314 97.0109 187.314 98.0055V107.044C187.314 108.068 186.495 108.858 185.5 108.858H186.846C187.869 108.858 188.659 108.039 188.659 107.044V98.0055C188.688 97.0109 187.869 96.1918 186.846 96.1918Z" fill="#BC71A7"/>
<path d="M158.471 73.4046L156.306 73.9896C156.043 74.0481 155.868 74.3114 155.868 74.6331C155.751 76.3005 155.868 78.3189 156.277 80.6883C157.243 86.3047 159.729 93.0327 163.385 99.0878C163.824 99.8484 164.702 99.6144 164.731 98.7368C164.907 91.6578 163.766 84.5788 161.835 79.2257C161.016 76.9733 160.139 75.1597 159.202 73.7556C158.998 73.4923 158.734 73.3461 158.471 73.4046Z" fill="#F7CD84"/>
<path d="M161.835 79.2257C161.016 76.9733 160.139 75.1596 159.202 73.7555C159.027 73.463 158.734 73.346 158.5 73.4045L157.506 73.6678C157.74 73.9896 158.032 74.3406 158.296 74.7501C158.296 74.7501 158.705 75.3937 159.115 76.0957C161.396 80.1617 162.274 83.906 163.005 87.0945C163.532 89.3761 163.737 90.985 164.117 94.2027C164.263 95.3143 164.614 98.3565 164.234 99.4973C164.497 99.4096 164.731 99.1463 164.731 98.7075C164.907 91.687 163.766 84.608 161.835 79.2257Z" fill="#F8B461"/>
<path d="M154.873 65.1262C154.873 65.0092 154.756 64.9799 154.668 65.0384C153.995 65.8575 152.386 68.1684 152.884 71.0058C152.942 71.3276 153.498 74.3113 155.75 75.3351C156.482 75.6569 157.037 75.6277 157.154 75.6277C158.5 75.5399 159.729 74.2821 160.021 72.9657C160.401 71.2691 159.202 69.4555 157.915 68.7242C157.271 68.3439 156.686 68.3147 155.926 67.5834C155.165 66.8813 154.961 66.2085 154.931 66.0623C154.844 65.7112 154.844 65.3895 154.873 65.1262Z" fill="#6F5A66"/>
<path d="M157.945 68.7242C157.301 68.3439 156.716 68.3147 155.956 67.5834C155.195 66.8813 154.99 66.2085 154.961 66.0623C154.873 65.7405 154.873 65.4187 154.873 65.1847C154.873 65.1262 154.844 65.0677 154.785 65.0677C154.727 65.3602 154.668 65.7698 154.756 66.2378C154.785 66.4133 154.932 67.1154 155.634 67.9344C156.365 68.7535 156.95 68.8412 157.564 69.3093C158.793 70.1868 159.875 72.2052 159.349 73.9311C159.232 74.2821 159.085 74.6039 158.881 74.9256C159.466 74.4284 159.905 73.7263 160.051 72.995C160.402 71.2691 159.202 69.4555 157.945 68.7242Z" fill="#6B4C5F"/>
<path d="M155.926 67.5834C155.166 66.8813 154.961 66.2085 154.932 66.0623C154.844 65.7112 154.844 65.3895 154.844 65.1555C154.844 65.0384 154.727 65.0092 154.639 65.0677C154.025 65.8283 152.621 67.8466 152.796 70.3623C152.796 70.3623 152.826 70.5671 152.826 70.6256V75.4522C152.826 75.7447 153.06 76.008 153.381 76.008C153.674 76.008 153.937 75.7739 153.937 75.4522V70.8889C153.937 70.6841 154.113 70.5086 154.317 70.5086C154.522 70.5086 154.698 70.6841 154.698 70.8889V71.7372C154.698 71.9712 154.844 72.1759 155.078 72.2052C155.37 72.2637 155.604 72.0297 155.604 71.7372V71.4154C155.604 71.0644 155.575 70.1868 156.19 70.0405C157.535 69.7188 157.564 69.4848 157.857 68.695C157.272 68.3439 156.716 68.3147 155.926 67.5834Z" fill="#ED4A5E"/>
<path d="M187.509 157.446H190.434V113.568H187.509V157.446Z" fill="#DE6173"/>
<path d="M183.998 157.446H187.509V113.568H183.998V157.446Z" fill="#F37F82"/>
<path d="M185.763 147.441H168.797V151.244H185.763V147.441Z" fill="#DD6B80"/>
<path d="M185.763 113.568H168.797V125.268H185.763V113.568Z" fill="#DD6B80"/>
<path opacity="0.34" d="M182.37 118.95H180.966C180.469 118.95 180.088 118.57 180.088 118.072C180.088 117.575 180.469 117.195 180.966 117.195H182.37C182.867 117.195 183.248 117.575 183.248 118.072C183.248 118.54 182.867 118.95 182.37 118.95Z" fill="#F37F82"/>
<path opacity="0.34" d="M183.54 121.641H176.753C176.256 121.641 175.876 121.261 175.876 120.764C175.876 120.266 176.256 119.886 176.753 119.886H183.54C184.037 119.886 184.417 120.266 184.417 120.764C184.417 121.261 184.037 121.641 183.54 121.641Z" fill="#F37F82"/>
<path opacity="0.34" d="M178.509 118.95H174.501C174.004 118.95 173.624 118.57 173.624 118.072C173.624 117.575 174.004 117.195 174.501 117.195H178.509C179.006 117.195 179.386 117.575 179.386 118.072C179.386 118.54 179.006 118.95 178.509 118.95Z" fill="#F37F82"/>
<path d="M170.318 66.6473L168.914 66.4426L167.13 69.6018L171.108 70.1868L170.318 66.6473Z" fill="#C5E1DF"/>
<path d="M165.521 96.0456L165.023 95.9871C164.058 95.8408 163.415 94.9633 163.532 93.9979L167.13 69.631L171.079 70.2161L167.481 94.583C167.364 95.519 166.457 96.1918 165.521 96.0456Z" fill="#F7CD84"/>
<path d="M164.322 95.8701C163.766 95.7824 163.356 95.2558 163.444 94.7L167.159 69.6018L168.183 69.7481L164.322 95.8701Z" fill="#F8B461"/>
<path d="M166.223 96.1334L170.084 70.0113L171.108 70.1576L167.393 95.2558C167.305 95.8408 166.779 96.2211 166.223 96.1334Z" fill="#F8B461"/>
<path d="M170.318 66.6473L169.997 65.1847C169.938 64.98 169.733 64.9215 169.616 65.1262L168.885 66.4133L170.318 66.6473Z" fill="#6F5A66"/>
<path d="M170.318 66.6473L169.645 66.5303L170.084 70.0405L171.108 70.1868L170.318 66.6473Z" fill="#A5CECA"/>
<path d="M144.216 157.446H147.141V113.568H144.216V157.446Z" fill="#DE6173"/>
<path d="M140.706 157.446H144.216V113.568H140.706V157.446Z" fill="#F37F82"/>
<path d="M168.787 157.446H171.713V113.568H168.787V157.446Z" fill="#DE6173"/>
<path d="M165.277 157.446H168.787V113.568H165.277V157.446Z" fill="#F37F82"/>
<path d="M165.287 113.568H145.542V125.268H165.287V113.568Z" fill="#F37F82"/>
<path d="M165.287 147.441H145.542V151.244H165.287V147.441Z" fill="#F37F82"/>
<path d="M168.797 108.887H137.79V113.568H168.797V108.887Z" fill="#F37F82"/>
<path d="M192.198 108.887H168.797V113.568H192.198V108.887Z" fill="#DE6173"/>
<path d="M165.287 113.568H145.542V115.176H165.287V113.568Z" fill="#E26971"/>
<path d="M171.718 113.563V125.264H172.888V113.563H171.718Z" fill="#CE5F78"/>
<path d="M171.708 147.446V151.249H172.878V147.446H171.708Z" fill="#CE5F78"/>
<path d="M172.298 115.19H185.754V113.581H172.298V115.19Z" fill="#CE5F78"/>
<path d="M168.797 113.568H165.287V113.743H168.797V113.568Z" fill="#E26971"/>
<path d="M144.225 113.568H140.715V113.743H144.225V113.568Z" fill="#E26971"/>
<path d="M156.218 121.319C157.107 121.319 157.827 120.599 157.827 119.71C157.827 118.822 157.107 118.102 156.218 118.102C155.33 118.102 154.61 118.822 154.61 119.71C154.61 120.599 155.33 121.319 156.218 121.319Z" fill="#E26971"/>
<path d="M155.399 121.173C156.288 121.173 157.008 120.453 157.008 119.564C157.008 118.676 156.288 117.955 155.399 117.955C154.511 117.955 153.79 118.676 153.79 119.564C153.79 120.453 154.511 121.173 155.399 121.173Z" fill="#633047"/>
<path d="M154.968 119.408C155.306 119.378 155.56 119.132 155.535 118.858C155.511 118.585 155.217 118.387 154.879 118.417C154.542 118.447 154.287 118.694 154.312 118.967C154.336 119.241 154.63 119.438 154.968 119.408Z" fill="#F4CEE1"/>
<path opacity="0.4" d="M163.882 117.721H160.665C160.167 117.721 159.787 117.341 159.787 116.844C159.787 116.346 160.167 115.966 160.665 115.966H163.882C164.38 115.966 164.76 116.346 164.76 116.844C164.76 117.341 164.38 117.721 163.882 117.721Z" fill="#E26971"/>
<path opacity="0.4" d="M162.157 120.442H159.992C159.495 120.442 159.115 120.061 159.115 119.564C159.115 119.067 159.495 118.687 159.992 118.687H162.157C162.654 118.687 163.035 119.067 163.035 119.564C163.035 120.061 162.625 120.442 162.157 120.442Z" fill="#E26971"/>
<path opacity="0.2" d="M158.237 123.689H147.706C147.209 123.689 146.829 123.308 146.829 122.811C146.829 122.314 147.209 121.934 147.706 121.934H158.237C158.734 121.934 159.115 122.314 159.115 122.811C159.115 123.279 158.734 123.689 158.237 123.689Z" fill="#E26971"/>
<path opacity="0.39" d="M152.679 123.689H151.129C150.632 123.689 150.251 123.308 150.251 122.811C150.251 122.314 150.632 121.934 151.129 121.934H152.65C153.147 121.934 153.528 122.314 153.528 122.811C153.557 123.279 153.177 123.689 152.679 123.689Z" fill="#E26971"/>
<path opacity="0.4" d="M155.341 117.721H148.028C147.531 117.721 147.151 117.341 147.151 116.844C147.151 116.346 147.531 115.966 148.028 115.966H155.341C155.838 115.966 156.219 116.346 156.219 116.844C156.219 117.341 155.838 117.721 155.341 117.721Z" fill="#E26971"/>
<path d="M172.951 108.887H156.57C155.283 108.887 154.229 107.834 154.229 106.547V86.5972C154.229 86.0999 154.61 85.7196 155.107 85.7196H174.413C174.911 85.7196 175.291 86.0999 175.291 86.5972V106.547C175.291 107.834 174.238 108.887 172.951 108.887Z" fill="#EA3268"/>
<path opacity="0.69" d="M170.347 85.7196V106.547C170.347 107.834 169.294 108.887 168.007 108.887H172.98C174.267 108.887 175.32 107.834 175.32 106.547V86.5972C175.32 86.0999 174.94 85.7196 174.443 85.7196H170.347Z" fill="#AA235B"/>
<path d="M151.626 146.739C151.07 146.739 150.602 146.271 150.602 145.716C150.602 145.16 151.07 144.692 151.626 144.692H163.941V143.96H151.626C150.661 143.96 149.871 144.75 149.871 145.716C149.871 146.681 150.661 147.471 151.626 147.471H163.941V146.739H151.626Z" fill="#ED4A5E"/>
<path d="M151.626 146.739C151.071 146.739 150.603 146.271 150.603 145.716C150.603 145.16 151.071 144.692 151.626 144.692H163.386V146.739H151.626Z" fill="#F4E1E4"/>
<path opacity="0.2" d="M163.385 144.692H158.413V146.739H163.385V144.692Z" fill="#442228"/>
<path opacity="0.2" d="M163.941 143.96H158.413V144.662H163.941V143.96Z" fill="#442228"/>
<path opacity="0.2" d="M163.941 146.739H158.413V147.441H163.941V146.739Z" fill="#442228"/>
<path d="M31.576 134.658H18.8806V131.353C18.8806 130.621 19.4657 130.036 20.197 130.036H30.2597C30.991 130.036 31.576 130.621 31.576 131.353V134.658Z" fill="#F8B461"/>
<path d="M30.2593 130.036H28.8552C29.5865 130.036 30.1716 130.621 30.1716 131.353V134.658H31.5757V131.353C31.5757 130.621 30.9906 130.036 30.2593 130.036Z" fill="#E29C50"/>
<path d="M32.4242 157.68H18.0614C17.0376 157.68 16.2478 156.861 16.2478 155.866V136.501C16.2478 135.477 17.0669 134.688 18.0614 134.688H32.4242C33.448 134.688 34.2378 135.507 34.2378 136.501V155.837C34.2378 156.861 33.4187 157.68 32.4242 157.68Z" fill="#F7CD84"/>
<path d="M32.1023 134.658H29.7036C30.9029 134.658 31.839 135.624 31.839 136.794V155.515C31.839 156.714 30.8737 157.65 29.7036 157.65H32.1023C33.3016 157.65 34.2377 156.685 34.2377 155.515V136.794C34.2377 135.624 33.3016 134.658 32.1023 134.658Z" fill="#F8B461"/>
<path d="M19.7582 140.977H19.5242C19.1731 140.977 18.8806 140.684 18.8806 140.333V134.688H20.3725V140.333C20.3725 140.684 20.1092 140.977 19.7582 140.977Z" fill="#ED4A5E"/>
<path d="M21.8644 134.658H20.3726V136.706H21.8644V134.658Z" fill="#ED4A5E"/>
<path d="M21.2501 137.496H21.0161C20.6651 137.496 20.3726 137.203 20.3726 136.852V136.355C20.3726 136.004 20.6651 135.711 21.0161 135.711H21.2501C21.6011 135.711 21.8937 136.004 21.8937 136.355V136.852C21.8937 137.203 21.6011 137.496 21.2501 137.496Z" fill="#F7CD84"/>
<path d="M22.7413 137.613H22.5073C22.1563 137.613 21.8638 137.32 21.8638 136.969V134.658H23.3556V136.969C23.3849 137.32 23.0924 137.613 22.7413 137.613Z" fill="#ED4A5E"/>
<path d="M34.2377 142.059H16.2185V149.723H34.2377V142.059Z" fill="#EA3268"/>
<path d="M34.2672 142.059H31.9856V149.723H34.2672V142.059Z" fill="#D33167"/>
<path d="M8.96411 157.68C8.96411 156.627 9.81242 155.749 10.8947 155.749C11.9771 155.749 12.8254 156.597 12.8254 157.68H8.96411Z" fill="#ED4A5E"/>
<path d="M11.8308 157.68C11.8308 157.153 12.2696 156.714 12.7961 156.714C13.3227 156.714 13.7614 157.153 13.7614 157.68H11.8308Z" fill="#E0445E"/>
</svg>
